<svg width="25" height="25" viewBox="0 0 25 25" fill="none" xmlns="http://www.w3.org/2000/svg">
<path d="M15.7552 21.9793L6.97917 13.2293C6.875 13.1252 6.80104 13.0123 6.75729 12.8908C6.71354 12.7693 6.69201 12.6391 6.69271 12.5002C6.69271 12.3613 6.71424 12.2311 6.75729 12.1095C6.80035 11.988 6.87431 11.8752 6.97917 11.771L15.7552 2.99495C15.9983 2.7519 16.3021 2.63037 16.6667 2.63037C17.0312 2.63037 17.3437 2.76058 17.6042 3.021C17.8646 3.28141 17.9948 3.58523 17.9948 3.93245C17.9948 4.27968 17.8646 4.5835 17.6042 4.84391L9.94792 12.5002L17.6042 20.1564C17.8472 20.3995 17.9687 20.6991 17.9687 21.0554C17.9687 21.4116 17.8385 21.7196 17.5781 21.9793C17.3177 22.2397 17.0139 22.37 16.6667 22.37C16.3194 22.37 16.0156 22.2397 15.7552 21.9793Z" fill="black"/>
</svg>
